<mxfile host="app.diagrams.net" modified="2020-12-15T14:20:29.204Z" agent="5.0 (Windows)" etag="AU5kKHeh843qN_ANNV1M" version="14.0.1" type="github">
  <diagram id="fo68M4JGA5VCmyatKIyw" name="Page-1">
    <mxGraphModel dx="1178" dy="651" grid="1" gridSize="10" guides="1" tooltips="1" connect="1" arrows="1" fold="1" page="1" pageScale="1" pageWidth="827" pageHeight="1169" math="0" shadow="0">
      <root>
        <mxCell id="0" />
        <mxCell id="1" parent="0" />
        <mxCell id="6cofZyK_9uE6b1Om9VYr-34" style="edgeStyle=orthogonalEdgeStyle;rounded=0;orthogonalLoop=1;jettySize=auto;html=1;exitX=0.5;exitY=1;exitDx=0;exitDy=0;" edge="1" parent="1">
          <mxGeometry relative="1" as="geometry">
            <mxPoint x="639.9999999999998" y="330" as="sourcePoint" />
            <mxPoint x="639.9999999999998" y="330" as="targetPoint" />
          </mxGeometry>
        </mxCell>
        <mxCell id="6cofZyK_9uE6b1Om9VYr-35" value="渠道审核" style="swimlane;html=1;childLayout=stackLayout;resizeParent=1;resizeParentMax=0;startSize=20;" vertex="1" parent="1">
          <mxGeometry x="219" y="120" width="620" height="810" as="geometry" />
        </mxCell>
        <mxCell id="6cofZyK_9uE6b1Om9VYr-36" value="渠道管理后台(合作方使用)" style="swimlane;html=1;startSize=20;" vertex="1" parent="6cofZyK_9uE6b1Om9VYr-35">
          <mxGeometry y="20" width="180" height="790" as="geometry" />
        </mxCell>
        <mxCell id="6cofZyK_9uE6b1Om9VYr-37" value="商户账号申请提交审核" style="rounded=1;whiteSpace=wrap;html=1;" vertex="1" parent="6cofZyK_9uE6b1Om9VYr-36">
          <mxGeometry x="21" y="50" width="120" height="60" as="geometry" />
        </mxCell>
        <mxCell id="6cofZyK_9uE6b1Om9VYr-71" value="提交审核结束" style="rounded=1;whiteSpace=wrap;html=1;" vertex="1" parent="6cofZyK_9uE6b1Om9VYr-36">
          <mxGeometry x="31" y="260" width="120" height="60" as="geometry" />
        </mxCell>
        <mxCell id="6cofZyK_9uE6b1Om9VYr-79" value="审核成功" style="rounded=1;whiteSpace=wrap;html=1;" vertex="1" parent="6cofZyK_9uE6b1Om9VYr-36">
          <mxGeometry x="31" y="460" width="120" height="60" as="geometry" />
        </mxCell>
        <mxCell id="6cofZyK_9uE6b1Om9VYr-87" value="审核失败" style="rounded=1;whiteSpace=wrap;html=1;" vertex="1" parent="6cofZyK_9uE6b1Om9VYr-36">
          <mxGeometry x="21" y="710" width="120" height="60" as="geometry" />
        </mxCell>
        <mxCell id="6cofZyK_9uE6b1Om9VYr-40" style="edgeStyle=orthogonalEdgeStyle;rounded=0;orthogonalLoop=1;jettySize=auto;html=1;exitX=1;exitY=0.5;exitDx=0;exitDy=0;entryX=0;entryY=0.5;entryDx=0;entryDy=0;" edge="1" parent="6cofZyK_9uE6b1Om9VYr-35" source="6cofZyK_9uE6b1Om9VYr-37" target="6cofZyK_9uE6b1Om9VYr-39">
          <mxGeometry relative="1" as="geometry" />
        </mxCell>
        <mxCell id="6cofZyK_9uE6b1Om9VYr-80" style="edgeStyle=orthogonalEdgeStyle;rounded=0;orthogonalLoop=1;jettySize=auto;html=1;exitX=0;exitY=0.5;exitDx=0;exitDy=0;entryX=1;entryY=0.5;entryDx=0;entryDy=0;" edge="1" parent="6cofZyK_9uE6b1Om9VYr-35" source="6cofZyK_9uE6b1Om9VYr-77" target="6cofZyK_9uE6b1Om9VYr-79">
          <mxGeometry relative="1" as="geometry" />
        </mxCell>
        <mxCell id="6cofZyK_9uE6b1Om9VYr-76" style="edgeStyle=orthogonalEdgeStyle;rounded=0;orthogonalLoop=1;jettySize=auto;html=1;entryX=1;entryY=0.5;entryDx=0;entryDy=0;" edge="1" parent="6cofZyK_9uE6b1Om9VYr-35" source="6cofZyK_9uE6b1Om9VYr-75" target="6cofZyK_9uE6b1Om9VYr-45">
          <mxGeometry relative="1" as="geometry" />
        </mxCell>
        <mxCell id="6cofZyK_9uE6b1Om9VYr-72" style="edgeStyle=orthogonalEdgeStyle;rounded=0;orthogonalLoop=1;jettySize=auto;html=1;exitX=0;exitY=0.5;exitDx=0;exitDy=0;entryX=1;entryY=0.5;entryDx=0;entryDy=0;" edge="1" parent="6cofZyK_9uE6b1Om9VYr-35" source="6cofZyK_9uE6b1Om9VYr-68" target="6cofZyK_9uE6b1Om9VYr-71">
          <mxGeometry relative="1" as="geometry" />
        </mxCell>
        <mxCell id="6cofZyK_9uE6b1Om9VYr-74" style="edgeStyle=orthogonalEdgeStyle;rounded=0;orthogonalLoop=1;jettySize=auto;html=1;exitX=1;exitY=0.5;exitDx=0;exitDy=0;" edge="1" parent="6cofZyK_9uE6b1Om9VYr-35" source="6cofZyK_9uE6b1Om9VYr-68" target="6cofZyK_9uE6b1Om9VYr-73">
          <mxGeometry relative="1" as="geometry" />
        </mxCell>
        <mxCell id="6cofZyK_9uE6b1Om9VYr-88" style="edgeStyle=orthogonalEdgeStyle;rounded=0;orthogonalLoop=1;jettySize=auto;html=1;exitX=0;exitY=0.5;exitDx=0;exitDy=0;entryX=1;entryY=0.5;entryDx=0;entryDy=0;" edge="1" parent="6cofZyK_9uE6b1Om9VYr-35" source="6cofZyK_9uE6b1Om9VYr-85" target="6cofZyK_9uE6b1Om9VYr-87">
          <mxGeometry relative="1" as="geometry" />
        </mxCell>
        <mxCell id="6cofZyK_9uE6b1Om9VYr-84" style="edgeStyle=orthogonalEdgeStyle;rounded=0;orthogonalLoop=1;jettySize=auto;html=1;entryX=1;entryY=0.5;entryDx=0;entryDy=0;" edge="1" parent="6cofZyK_9uE6b1Om9VYr-35" target="6cofZyK_9uE6b1Om9VYr-83">
          <mxGeometry relative="1" as="geometry">
            <mxPoint x="471" y="620" as="sourcePoint" />
          </mxGeometry>
        </mxCell>
        <mxCell id="6cofZyK_9uE6b1Om9VYr-38" value="渠道管理后台(奇门后台)" style="swimlane;html=1;startSize=20;" vertex="1" parent="6cofZyK_9uE6b1Om9VYr-35">
          <mxGeometry x="180" y="20" width="220" height="790" as="geometry" />
        </mxCell>
        <mxCell id="6cofZyK_9uE6b1Om9VYr-107" style="edgeStyle=orthogonalEdgeStyle;rounded=0;orthogonalLoop=1;jettySize=auto;html=1;exitX=0.5;exitY=1;exitDx=0;exitDy=0;entryX=0.5;entryY=0;entryDx=0;entryDy=0;" edge="1" parent="6cofZyK_9uE6b1Om9VYr-38" source="6cofZyK_9uE6b1Om9VYr-39" target="6cofZyK_9uE6b1Om9VYr-104">
          <mxGeometry relative="1" as="geometry" />
        </mxCell>
        <mxCell id="6cofZyK_9uE6b1Om9VYr-39" value="查询申请信息详情" style="rounded=0;whiteSpace=wrap;html=1;" vertex="1" parent="6cofZyK_9uE6b1Om9VYr-38">
          <mxGeometry x="61" y="50" width="120" height="60" as="geometry" />
        </mxCell>
        <mxCell id="6cofZyK_9uE6b1Om9VYr-78" style="edgeStyle=orthogonalEdgeStyle;rounded=0;orthogonalLoop=1;jettySize=auto;html=1;exitX=0.5;exitY=1;exitDx=0;exitDy=0;entryX=0.5;entryY=0;entryDx=0;entryDy=0;" edge="1" parent="6cofZyK_9uE6b1Om9VYr-38" source="6cofZyK_9uE6b1Om9VYr-45" target="6cofZyK_9uE6b1Om9VYr-77">
          <mxGeometry relative="1" as="geometry" />
        </mxCell>
        <mxCell id="6cofZyK_9uE6b1Om9VYr-45" value="进入审核成功流程" style="rounded=0;whiteSpace=wrap;html=1;" vertex="1" parent="6cofZyK_9uE6b1Om9VYr-38">
          <mxGeometry x="61" y="350" width="120" height="60" as="geometry" />
        </mxCell>
        <mxCell id="6cofZyK_9uE6b1Om9VYr-68" value="提交审核" style="rounded=0;whiteSpace=wrap;html=1;" vertex="1" parent="6cofZyK_9uE6b1Om9VYr-38">
          <mxGeometry x="61" y="260" width="120" height="60" as="geometry" />
        </mxCell>
        <mxCell id="6cofZyK_9uE6b1Om9VYr-77" value="更新商户审核状态=审核通过" style="rounded=0;whiteSpace=wrap;html=1;" vertex="1" parent="6cofZyK_9uE6b1Om9VYr-38">
          <mxGeometry x="61" y="460" width="120" height="60" as="geometry" />
        </mxCell>
        <mxCell id="6cofZyK_9uE6b1Om9VYr-86" style="edgeStyle=orthogonalEdgeStyle;rounded=0;orthogonalLoop=1;jettySize=auto;html=1;exitX=0.5;exitY=1;exitDx=0;exitDy=0;" edge="1" parent="6cofZyK_9uE6b1Om9VYr-38" source="6cofZyK_9uE6b1Om9VYr-83" target="6cofZyK_9uE6b1Om9VYr-85">
          <mxGeometry relative="1" as="geometry">
            <Array as="points">
              <mxPoint x="120" y="670" />
              <mxPoint x="120" y="670" />
            </Array>
          </mxGeometry>
        </mxCell>
        <mxCell id="6cofZyK_9uE6b1Om9VYr-83" value="进入审核失败流程" style="rounded=0;whiteSpace=wrap;html=1;" vertex="1" parent="6cofZyK_9uE6b1Om9VYr-38">
          <mxGeometry x="60" y="570" width="120" height="60" as="geometry" />
        </mxCell>
        <mxCell id="6cofZyK_9uE6b1Om9VYr-85" value="更新商户审核状态=审核失败" style="rounded=0;whiteSpace=wrap;html=1;" vertex="1" parent="6cofZyK_9uE6b1Om9VYr-38">
          <mxGeometry x="60" y="710" width="120" height="60" as="geometry" />
        </mxCell>
        <mxCell id="6cofZyK_9uE6b1Om9VYr-108" style="edgeStyle=orthogonalEdgeStyle;rounded=0;orthogonalLoop=1;jettySize=auto;html=1;exitX=0.5;exitY=1;exitDx=0;exitDy=0;entryX=0.5;entryY=0;entryDx=0;entryDy=0;" edge="1" parent="6cofZyK_9uE6b1Om9VYr-38" source="6cofZyK_9uE6b1Om9VYr-104" target="6cofZyK_9uE6b1Om9VYr-68">
          <mxGeometry relative="1" as="geometry" />
        </mxCell>
        <mxCell id="6cofZyK_9uE6b1Om9VYr-104" value="校验邀请码" style="rounded=0;whiteSpace=wrap;html=1;" vertex="1" parent="6cofZyK_9uE6b1Om9VYr-38">
          <mxGeometry x="61" y="160" width="120" height="60" as="geometry" />
        </mxCell>
        <mxCell id="6cofZyK_9uE6b1Om9VYr-61" value="审核系统" style="swimlane;html=1;startSize=20;" vertex="1" parent="6cofZyK_9uE6b1Om9VYr-35">
          <mxGeometry x="400" y="20" width="220" height="790" as="geometry" />
        </mxCell>
        <mxCell id="6cofZyK_9uE6b1Om9VYr-73" value="提交审核" style="rounded=0;whiteSpace=wrap;html=1;" vertex="1" parent="6cofZyK_9uE6b1Om9VYr-61">
          <mxGeometry x="71" y="260" width="120" height="60" as="geometry" />
        </mxCell>
        <mxCell id="6cofZyK_9uE6b1Om9VYr-75" value="审核成功回调" style="rounded=1;whiteSpace=wrap;html=1;" vertex="1" parent="6cofZyK_9uE6b1Om9VYr-61">
          <mxGeometry x="71" y="350" width="121" height="60" as="geometry" />
        </mxCell>
        <mxCell id="6cofZyK_9uE6b1Om9VYr-81" value="审核失败回调" style="rounded=1;whiteSpace=wrap;html=1;" vertex="1" parent="6cofZyK_9uE6b1Om9VYr-61">
          <mxGeometry x="71" y="570" width="121" height="60" as="geometry" />
        </mxCell>
        <mxCell id="6cofZyK_9uE6b1Om9VYr-101" style="edgeStyle=orthogonalEdgeStyle;rounded=0;orthogonalLoop=1;jettySize=auto;html=1;exitX=1;exitY=0.5;exitDx=0;exitDy=0;" edge="1" parent="6cofZyK_9uE6b1Om9VYr-61">
          <mxGeometry relative="1" as="geometry">
            <mxPoint x="-39" y="290.0000000000001" as="sourcePoint" />
            <mxPoint x="71" y="290.0000000000001" as="targetPoint" />
          </mxGeometry>
        </mxCell>
        <mxCell id="6cofZyK_9uE6b1Om9VYr-103" style="edgeStyle=orthogonalEdgeStyle;rounded=0;orthogonalLoop=1;jettySize=auto;html=1;exitX=0;exitY=0.5;exitDx=0;exitDy=0;entryX=1;entryY=0.5;entryDx=0;entryDy=0;" edge="1" parent="6cofZyK_9uE6b1Om9VYr-61">
          <mxGeometry relative="1" as="geometry">
            <mxPoint x="-159" y="290.0000000000001" as="sourcePoint" />
            <mxPoint x="-249" y="290.0000000000001" as="targetPoint" />
          </mxGeometry>
        </mxCell>
      </root>
    </mxGraphModel>
  </diagram>
</mxfile>
